<?xml version="1.0" encoding="iso-8859-1"?>
<!-- Uploaded to: SVG Repo, www.svgrepo.com, Generator: SVG Repo Mixer Tools -->
<svg fill="#000000" height="800px" width="800px" version="1.1" id="Layer_1" xmlns="http://www.w3.org/2000/svg" xmlns:xlink="http://www.w3.org/1999/xlink" 
	 viewBox="0 0 228.844 228.844" xml:space="preserve">
<g>
	<g>
		<g>
			<path d="M183.048,0L27.624,8.204l0.016,0.252c0.38,0.012,0.72,0.076,1.076,0.124h-2.72h-0.18v220.264h0.18h18.928h125.444
				c9.424,0,17.452-5.992,20.548-14.352c7.096-3.004,12.112-9.9,12.112-18.048V19.808C203.028,8.888,194.1,0,183.048,0z
				 M34.8,224.88h-4.84V12.552h4.84V224.88z M40.956,224.88h-5.02V12.552h5.02V224.88z M188.32,206.924
				c0,9.9-8.052,17.956-17.952,17.956H44.924V12.552h125.444c9.9,0,17.952,8.056,17.952,17.952V206.924z M191.924,210.816
				c0.228-1.264,0.368-2.56,0.368-3.888V30.504c0-12.084-9.836-21.92-21.92-21.92H74.196l108.92-5.752
				c9.416,0,17.076,7.616,17.076,16.976v176.64h0C200.192,202.58,196.852,207.864,191.924,210.816z"/>
			<path d="M52.304,204.156h125.072v-31.508H52.304V204.156z M55.14,175.484h119.4v25.836H55.14V175.484z"/>
			<path d="M56.928,199.412h115.828v-22.016H56.928V199.412z M58.06,178.528h113.564v19.752H58.06V178.528z"/>
			<path d="M114.656,154.372c25.044,0,45.416-20.376,45.416-45.416c0-25.04-20.376-45.416-45.416-45.416
				c-25.044,0-45.416,20.372-45.416,45.416S89.612,154.372,114.656,154.372z M116.672,151.864h-1.084l-0.164-0.792v-19.416
				l0.82,0.024c4.604,0.152,9.016,0.876,13.12,2.16l0.884,0.276l-0.404,0.832c-3.212,6.568-7.692,12.352-12.952,16.728
				L116.672,151.864z M115.424,108.192V90.916l0.772-0.024c5.168-0.156,10.232-1.088,15.064-2.764l0.74-0.256l0.268,0.736
				c2.108,5.86,3.26,12.176,3.436,18.764l0.02,0.82H115.424z M135.724,109.724l-0.02,0.82c-0.196,7.528-1.732,14.768-4.56,21.52
				l-0.284,0.676l-0.692-0.228c-4.408-1.42-9.108-2.216-13.968-2.364l-0.772-0.024v-20.4H135.724z M142.564,141.596
				c-5.94,5.084-13.144,8.444-20.844,9.724l-2.456,0.404l1.76-1.752c4.18-4.164,7.66-9.088,10.34-14.636l0.316-0.656l0.684,0.264
				c3.468,1.336,6.872,3.152,10.132,5.396l0.848,0.584L142.564,141.596z M157.568,110.544c-0.404,10.932-4.888,21.188-12.616,28.876
				l-0.48,0.476l-0.548-0.392c-3.468-2.48-7.132-4.48-10.884-5.944l-0.76-0.296l0.316-0.752c2.888-6.9,4.448-14.304,4.64-22.02
				l0.02-0.78h20.34L157.568,110.544z M146.224,79.852l0.496,0.556c6.628,7.448,10.484,17.02,10.852,26.956l0.028,0.824h-20.34
				l-0.02-0.776c-0.168-6.788-1.36-13.296-3.544-19.336l-0.256-0.712l0.696-0.292c4.012-1.672,7.876-3.944,11.496-6.76
				L146.224,79.852z M121.72,66.596c8.628,1.436,16.52,5.416,22.812,11.512l0.664,0.64l-0.736,0.564
				c-3.428,2.628-7.096,4.764-10.892,6.348l-0.732,0.304l-0.312-0.728c-2.8-6.64-6.672-12.456-11.504-17.288l-1.752-1.752
				L121.72,66.596z M115.42,65.996l1.104,0.064l0.364,0.18c5.996,4.988,10.9,11.712,14.18,19.448l0.336,0.788l-0.812,0.272
				c-4.608,1.572-9.436,2.448-14.352,2.604l-0.82,0.024V65.996z M84.836,139.9l-0.48-0.476
				c-7.728-7.696-12.208-17.952-12.616-28.876l-0.028-0.824h20.344l0.02,0.776c0.188,7.7,1.744,15.108,4.636,22.02l0.316,0.752
				l-0.76,0.296c-3.76,1.464-7.42,3.464-10.884,5.944L84.836,139.9z M107.596,151.316c-7.708-1.28-14.916-4.64-20.844-9.724
				l-0.78-0.668l0.848-0.588c3.232-2.24,6.64-4.052,10.132-5.396l0.684-0.264l0.316,0.656c2.668,5.532,6.148,10.456,10.34,14.636
				l1.76,1.752L107.596,151.316z M113.892,151.868l-1.272-0.024l-0.196-0.168c-5.268-4.388-9.74-10.172-12.948-16.728l-0.404-0.832
				l0.884-0.276c4.1-1.28,8.512-2.004,13.116-2.16l0.82-0.024V151.868z M113.896,130.124h-0.004l-0.772,0.024
				c-4.864,0.144-9.56,0.944-13.964,2.364l-0.692,0.228l-0.284-0.676c-2.832-6.748-4.368-13.992-4.564-21.52l-0.02-0.82h20.3
				V130.124z M93.592,108.188l0.02-0.816c0.176-6.604,1.328-12.916,3.436-18.76l0.268-0.736l0.74,0.256
				c4.844,1.676,9.912,2.608,15.064,2.764l0.772,0.024v17.268h0H93.592z M112.428,66.244l0.196-0.172L113.732,66l0.16,0.84v22.54
				l-0.82-0.024c-4.924-0.156-9.752-1.032-14.348-2.604l-0.812-0.276l0.336-0.784C101.528,77.956,106.432,71.232,112.428,66.244z
				 M84.788,78.112C91.076,72.016,98.964,68.04,107.6,66.6l2.452-0.404l-1.756,1.752c-4.832,4.82-8.704,10.64-11.508,17.288
				l-0.312,0.728l-0.732-0.304c-3.8-1.584-7.46-3.72-10.888-6.348l-0.736-0.564L84.788,78.112z M71.744,107.364
				c0.368-9.944,4.224-19.52,10.86-26.956l0.492-0.556l0.588,0.456c3.616,2.812,7.484,5.088,11.488,6.76l0.696,0.292l-0.256,0.712
				c-2.18,6.044-3.372,12.552-3.54,19.336l-0.02,0.776H71.716L71.744,107.364z"/>
			<path d="M65.636,38.688l-0.988,5.776c-0.036,0.212,0.052,0.424,0.228,0.552c0.096,0.076,0.216,0.108,0.332,0.108
				c0.088,0,0.18-0.02,0.264-0.068l5.188-2.728l5.188,2.728c0.2,0.108,0.424,0.088,0.596-0.044c0.176-0.124,0.26-0.34,0.228-0.556
				l-0.992-5.772l4.2-4.092c0.156-0.152,0.212-0.376,0.144-0.584c-0.068-0.204-0.244-0.356-0.456-0.388l-5.804-0.844l-2.592-5.256
				c-0.188-0.392-0.828-0.392-1.016,0l-2.592,5.256L61.76,33.62c-0.216,0.032-0.392,0.184-0.456,0.388
				c-0.068,0.208-0.012,0.428,0.144,0.584L65.636,38.688z M68.016,33.864c0.184-0.028,0.344-0.144,0.424-0.312l2.22-4.496
				l2.22,4.496c0.08,0.168,0.244,0.284,0.424,0.312l4.96,0.72l-3.588,3.5c-0.136,0.128-0.196,0.316-0.164,0.504l0.848,4.936
				l-4.432-2.332c-0.172-0.092-0.36-0.092-0.532,0l-4.432,2.332l0.844-4.94c0.032-0.184-0.028-0.372-0.164-0.5l-3.584-3.5
				L68.016,33.864z"/>
			<path d="M95.092,38.688l-0.988,5.776c-0.036,0.212,0.052,0.424,0.228,0.552c0.096,0.076,0.216,0.108,0.332,0.108
				c0.088,0,0.18-0.02,0.264-0.068l5.188-2.728l5.188,2.728c0.2,0.108,0.424,0.088,0.596-0.044c0.176-0.124,0.26-0.34,0.228-0.556
				l-0.992-5.772l4.2-4.092c0.156-0.152,0.212-0.376,0.144-0.584c-0.068-0.204-0.244-0.356-0.456-0.388l-5.804-0.844l-2.592-5.256
				c-0.188-0.392-0.828-0.392-1.016,0l-2.592,5.256l-5.804,0.844c-0.216,0.032-0.392,0.184-0.456,0.388
				c-0.068,0.208-0.012,0.428,0.144,0.584L95.092,38.688z M97.468,33.864c0.184-0.028,0.344-0.144,0.424-0.312l2.22-4.496
				l2.22,4.496c0.084,0.168,0.244,0.284,0.424,0.312l4.96,0.72l-3.588,3.5c-0.136,0.128-0.196,0.316-0.164,0.504l0.848,4.936
				l-4.432-2.332c-0.172-0.092-0.36-0.092-0.532,0l-4.432,2.332l0.844-4.94c0.032-0.184-0.028-0.372-0.164-0.5l-3.584-3.5
				L97.468,33.864z"/>
			<path d="M124.544,38.688l-0.988,5.776c-0.036,0.212,0.052,0.424,0.228,0.552c0.096,0.076,0.216,0.108,0.332,0.108
				c0.088,0,0.18-0.02,0.264-0.068l5.188-2.728l5.188,2.728c0.2,0.108,0.424,0.088,0.596-0.044c0.176-0.124,0.26-0.34,0.228-0.556
				l-0.992-5.772l4.2-4.092c0.156-0.152,0.212-0.376,0.144-0.584c-0.068-0.204-0.244-0.356-0.456-0.388l-5.804-0.844l-2.592-5.256
				c-0.188-0.392-0.828-0.392-1.016,0l-2.592,5.256l-5.804,0.844c-0.216,0.032-0.392,0.184-0.456,0.388
				c-0.068,0.208-0.012,0.428,0.144,0.584L124.544,38.688z M126.924,33.864c0.184-0.028,0.344-0.144,0.424-0.312l2.22-4.496
				l2.22,4.496c0.084,0.168,0.244,0.284,0.424,0.312l4.96,0.72l-3.588,3.5c-0.136,0.128-0.196,0.316-0.164,0.504l0.848,4.936
				l-4.432-2.332c-0.172-0.092-0.36-0.092-0.532,0l-4.432,2.332l0.844-4.94c0.032-0.184-0.028-0.372-0.164-0.5l-3.584-3.5
				L126.924,33.864z"/>
			<path d="M153.996,38.688l-0.988,5.776c-0.036,0.212,0.052,0.424,0.228,0.552c0.096,0.076,0.216,0.108,0.332,0.108
				c0.088,0,0.18-0.02,0.264-0.068l5.188-2.728l5.188,2.728c0.204,0.108,0.424,0.088,0.596-0.044c0.176-0.124,0.26-0.34,0.228-0.556
				l-0.992-5.772l4.2-4.092c0.156-0.152,0.212-0.376,0.144-0.584c-0.068-0.204-0.244-0.356-0.456-0.388l-5.804-0.844l-2.592-5.256
				c-0.188-0.392-0.828-0.392-1.016,0l-2.592,5.256l-5.804,0.844c-0.216,0.032-0.392,0.184-0.456,0.388
				c-0.068,0.208-0.012,0.428,0.144,0.584L153.996,38.688z M156.376,33.864c0.184-0.028,0.344-0.144,0.424-0.312l2.22-4.496
				l2.22,4.496c0.084,0.168,0.244,0.284,0.424,0.312l4.96,0.72l-3.588,3.5c-0.136,0.128-0.196,0.316-0.164,0.504l0.848,4.936
				l-4.432-2.332c-0.172-0.092-0.36-0.092-0.532,0l-4.432,2.332l0.844-4.94c0.032-0.184-0.028-0.372-0.164-0.5l-3.584-3.5
				L156.376,33.864z"/>
		</g>
	</g>
</g>
</svg>